<svg xmlns="http://www.w3.org/2000/svg" width="24" height="24" fill="none"><path fill="#627EEA" d="M12 24c6.627 0 12-5.373 12-12S18.627 0 12 0 0 5.373 0 12s5.373 12 12 12"/><path stroke="#000" stroke-opacity=".097" d="M23.5 12c0 6.351-5.149 11.5-11.5 11.5S.5 18.351.5 12 5.649.5 12 .5 23.5 5.649 23.5 12Z"/><path fill="#fff" fill-opacity=".602" d="M12 4v5.915l4.999 2.233z"/><path fill="#fff" d="m12 4-5 8.148 5-2.233z"/><path fill="#fff" fill-opacity=".602" d="M12 15.981V20l5.002-6.92z"/><path fill="#fff" d="M12 20v-4.02l-5-2.9z"/><path fill="#fff" fill-opacity=".2" d="m12 15.051 4.999-2.902-5-2.233z"/><path fill="#fff" fill-opacity=".602" d="m7 12.149 5 2.902V9.916z"/></svg>